# xmcd
#
# Track frame offsets:
#	150
#	20082
#	39580
#	64067
#	78210
#	100985
#	113322
#	135171
#	154418
#	175497
#	189564
#
# Disc length: 2849 seconds
#
# Revision: 0
# Processed by: cddbd v1.5.2PL0 Copyright (c) Steve Scherf et al.
# Submitted via: EasyCDDAExtractor 11.1.0.1
#
DISCID=870b1f0b
DTITLE=Volatile Baby - Traveling Light
DYEAR=2006
DGENRE=Country
TTITLE0=50 Miles Of Elbow Room
TTITLE1=Nowhere Fast
TTITLE2=Blue Lights
TTITLE3=Harlem
TTITLE4=For Your Sake
TTITLE5=Blue Angels
TTITLE6=Long Since Gone
TTITLE7=Wild Irish Rose
TTITLE8=Station Wagon
TTITLE9=Imagine 
TTITLE10=Bruise Across The Sky
EXTD=
EXTT0=
EXTT1=
EXTT2=
EXTT3=
EXTT4=
EXTT5=
EXTT6=
EXTT7=
EXTT8=
EXTT9=
EXTT10=
PLAYORDER=
